<svg id="_3d_icon" data-name="3d icon" xmlns="http://www.w3.org/2000/svg" viewBox="0 0 208.67 190"><defs><style>.cls-1,.cls-2{fill:none;stroke:#ba8f2e;stroke-miterlimit:10;stroke-width:6px;}.cls-2{stroke-linecap:round;}</style></defs><title>3d icon 6point</title><rect class="cls-1" x="3" y="3" width="202.67" height="140.67" rx="10.17" ry="10.17"/><line class="cls-1" x1="1.67" y1="122.33" x2="206.67" y2="122.33"/><polyline class="cls-1" points="93.67 145 83.33 172 126.33 172 115 144.67"/><path class="cls-1" d="M73.5,172h63.67a10.17,10.17,0,0,1,10.17,10.17V187a0,0,0,0,1,0,0h-84a0,0,0,0,1,0,0v-4.83A10.17,10.17,0,0,1,73.5,172Z"/><rect class="cls-1" x="14.67" y="18.33" width="21" height="79.67" rx="7" ry="7"/><rect class="cls-1" x="149.33" y="15" width="44.67" height="39.67" rx="7.33" ry="7.33"/><path class="cls-1" d="M695.14,315.31l21.71-11.41a1.34,1.34,0,0,1,1.22,0l23.65,12.24a1,1,0,0,1,0,1.89L719.3,329.37a1.34,1.34,0,0,1-1.22,0l-22.94-12.3A1,1,0,0,1,695.14,315.31Z" transform="translate(-614.33 -258.33)"/><line class="cls-2" x1="80.83" y1="88.17" x2="80.67" y2="59"/><line class="cls-1" x1="104" y1="71" x2="104.33" y2="100.33"/><path class="cls-2" d="M742.17,318.17l.16,27.92a1,1,0,0,1-.5.87L719.2,360a1,1,0,0,1-1,0l-22.48-13.33" transform="translate(-614.33 -258.33)"/><path class="cls-2" d="M718.5,293.5" transform="translate(-614.33 -258.33)"/><path class="cls-2" d="M707.75,285.06l10.66-10.13a1,1,0,0,1,1.49.05l9.85,10.89" transform="translate(-614.33 -258.33)"/><line class="cls-2" x1="104.67" y1="35.04" x2="104.6" y2="18.6"/><path class="cls-2" d="M684.82,350.27" transform="translate(-614.33 -258.33)"/><path class="cls-2" d="M684.22,363.92l-14.44-2.77a1,1,0,0,1-.83-1.24l3.11-14.34" transform="translate(-614.33 -258.33)"/><line class="cls-2" x1="70.09" y1="91.6" x2="56.76" y2="101.23"/><path class="cls-2" d="M752.86,350.77" transform="translate(-614.33 -258.33)"/><path class="cls-2" d="M765.89,346.68l2.33,14.52a1,1,0,0,1-.89,1.2l-14.55,2" transform="translate(-614.33 -258.33)"/><line class="cls-2" x1="138.34" y1="92.92" x2="151.94" y2="102.16"/><rect class="cls-2" x="23.17" y="35.67" width="4" height="4.25" rx="2" ry="2"/><rect class="cls-2" x="23.17" y="55.67" width="4" height="4.25" rx="2" ry="2"/><rect class="cls-2" x="23.17" y="74.67" width="4" height="4.25" rx="2" ry="2"/><line class="cls-2" x1="161.42" y1="30.17" x2="171.67" y2="30.17"/><line class="cls-2" x1="161.42" y1="40.17" x2="181.67" y2="40.17"/></svg>