<svg id="Layer_3" data-name="Layer 3" xmlns="http://www.w3.org/2000/svg" viewBox="0 0 225.56 219.47"><defs><style>.cls-1,.cls-2{fill:none;stroke:#ba8f2e;stroke-miterlimit:10;stroke-width:6px;}.cls-2{stroke-linecap:round;}</style></defs><title>calligrapgy traced 6point</title><path class="cls-1" d="M589.25,523.5H549.43a2,2,0,0,1-2-2c-.1-6.78,1-28.76,19.26-29,21.83-.25,133.16.35,135.75.94,5.75,1.31,11.56,1,12.31,17.5.68,15-.13,30.56-.33,33.33,0,.1-.13.18-.09.09l20.54-39.17s10.29-17.2,14.13-23c3.57-5.4,9.06-14.44,11.4-18.29a1,1,0,0,1,1.81.22,115.84,115.84,0,0,1,3.55,16.45c2,13,1.13,49.35.38,57.63-.79,8.71-1.29,14.58-8,28.38-3.67,7.54-8,11.84-13,17.63-2.94,3.44-10.25,10.42-20.42,12.31-2.75.51-11.44.75-11.44.75l0,47.69,42.55-.32a2,2,0,0,1,2,1.81c.31,3.55.43,11.65-3.72,19-5.5,9.75-9.42,10-15.92,11s-123.75,0-123.75,0-9.7.7-15-2.5c-7.17-4.33-6.11-19-6-20.31,0-.07,0-.14,0-.22l.5-129.89Z" transform="translate(-544.42 -460.47)"/><path class="cls-1" d="M618.54,676.46s11.25,1.13,15.5-7.87c3.34-7.07,4.49-17.74,4.83-22a2,2,0,0,1,2-1.84l72.29.24" transform="translate(-544.42 -460.47)"/><path class="cls-2" d="M714.58,543.67l-8.25,12.83s-4,6-7,18.5c-2.64,11,3.68,15.67,7.42,19.5,2.5,2.56,6.69,2.75,6.69,2.75" transform="translate(-544.42 -460.47)"/><line class="cls-2" x1="164.25" y1="135.69" x2="142.33" y2="168.53"/><path class="cls-2" d="M594.08,523.61c-.1-8.21-.09-7.78-.5-16.46-.62-13.37-9.81-13.25-11.67-13.75s-12-.94-12-.94" transform="translate(-544.42 -460.47)"/><path class="cls-2" d="M638.64,517s-2.38,15.33,1.43,19.33,10.48,2.31,11.61,1.85c2-.81,3.83-3.28,4.48-6.27,1.33-6.13.75-15.08.75-15.08" transform="translate(-544.42 -460.47)"/><path class="cls-2" d="M656.13,532.63s3.1,6.77,8.88,6.44,7.51-2.89,8.63-6.12c1.44-4.19.35-15.77.35-15.77" transform="translate(-544.42 -460.47)"/><path class="cls-2" d="M690.75,551.75s-4,.25-5.75,3.5-.25,27-.25,27,1.83,15.5-9.25,16.75c-10.2,1.15-12.75-1.75-14.75-5.25s-1.25-36.08-1.25-36.08.08-6.17,3.67-6.33" transform="translate(-544.42 -460.47)"/><path class="cls-2" d="M659.92,591.33s-4.92,9.23-14,9.29c-8.78.06-15.12-3.62-15.12-12.62,0-7.91.52-27.45.71-32.63a1,1,0,0,0-1.11-1c-2.6.27-7.86,1.32-11,3.16-4,2.33-7.93,4.11-11.58,11.42-1.45,2.91-.18,7,3.75,8.83,4.83,2.25,17.75.75,17.75.75" transform="translate(-544.42 -460.47)"/></svg>