<svg id="illus_icon" data-name="illus icon" xmlns="http://www.w3.org/2000/svg" viewBox="0 0 208.69 238"><defs><style>.cls-1,.cls-2{fill:none;stroke:#ba8f2e;stroke-miterlimit:10;stroke-width:6px;}.cls-2{stroke-linecap:round;}</style></defs><title>illus icon 6point</title><path class="cls-1" d="M1164,262.42,1163.83,382c.17,7.45-4.39,12-10,12H971.5a10.17,10.17,0,0,1-10.17-10.17V263.5a10.17,10.17,0,0,1,10.17-10.17h152.66" transform="translate(-958.33 -202.33)"/><path class="cls-1" d="M1149.25,253.5c5.61,0,15.33-2,14.75,10" transform="translate(-958.33 -202.33)"/><line class="cls-1" x1="1.67" y1="170.33" x2="206.67" y2="170.33"/><polyline class="cls-1" points="93.67 193 83.33 220 126.33 220 115 192.67"/><path class="cls-1" d="M73.5,220h63.67a10.17,10.17,0,0,1,10.17,10.17V235a0,0,0,0,1,0,0h-84a0,0,0,0,1,0,0v-4.83A10.17,10.17,0,0,1,73.5,220Z"/><path class="cls-1" d="M1147,229.67l-80,82.67-8.87,16.59a1,1,0,0,0,1.32,1.37l19.54-9.63,80.67-78.33s7.33-8,1-13.67S1147,229.67,1147,229.67Z" transform="translate(-958.33 -202.33)"/><line class="cls-1" x1="117.67" y1="101.33" x2="128.33" y2="111.67"/><path class="cls-2" d="M1032,321.17s-4.81-15.61,1.5-23.5c9.33-11.67,24.63-12,31.67-11.67,13.33.67,22.78,5.23,19.67,7.17" transform="translate(-958.33 -202.33)"/><path class="cls-2" d="M1105,298.83s13,1.33,12.17,12.83S1095,337.5,1095,337.5s-14.67,10.33-27.17,15.67c-4.16,1.77-17.17,5.67-17.17,5.67s-8.62,1.73-12.67-.67c-9-5.33,5.17-11.5,5.17-11.5s1.57-.93,7.83-1.83c14.15-2,22.6-1.56,30,1.83,9.53,4.38,41.5,8,41.5,8" transform="translate(-958.33 -202.33)"/><line class="cls-2" x1="50" y1="51" x2="50" y2="168.67"/><line class="cls-2" x1="43.33" y1="3" x2="43.33" y2="16.67"/><line class="cls-2" x1="35.33" y1="22.67" x2="24.33" y2="22.67"/><line class="cls-2" x1="51.67" y1="22" x2="62.67" y2="22"/><line class="cls-2" x1="44.67" y1="28" x2="44.67" y2="39.67"/><rect class="cls-2" x="18.67" y="104.33" width="17" height="16.33" rx="4" ry="4"/><ellipse class="cls-2" cx="26.33" cy="78.83" rx="8.33" ry="8.83"/><path class="cls-2" d="M977.62,351.12l5.32-9.4a3.46,3.46,0,0,1,6,0L994.4,351a3.46,3.46,0,0,1-3,5.21l-10.8.09A3.46,3.46,0,0,1,977.62,351.12Z" transform="translate(-958.33 -202.33)"/></svg>