<svg id="paint_icon" data-name="paint icon" xmlns="http://www.w3.org/2000/svg" viewBox="0 0 172.12 169.09"><defs><style>.cls-1,.cls-2{fill:none;stroke:#ba8f2e;stroke-miterlimit:10;stroke-width:6px;}.cls-1{stroke-linecap:round;}</style></defs><title>paint icon 6point</title><path class="cls-1" d="M1706.38,278.38s-7.12-7.25-2.37-16.71c2.41-4.8,8.33-9.67,6-17s-24-4.33-24-4.33-22.94-1-46.33,24.33c-4,4.33-29,38.33-19.33,82s65.33,56,74.33,56,43.33,3.33,66-22c0,0,21-17.33,20.67-55.67S1740,289.33,1740,289.33s26.33-16.67,35.33-25.67,14.33-19.33.33-16.33-24.33,6-41.33,15.33S1676,302.33,1676,302.33s-13.67-4.33-20,4a244.19,244.19,0,0,0-13.63,21.13,1,1,0,0,0,.68,1.48c4.45.83,18.66,3.07,27.29-.27,10.33-4,12-14.67,12-14.67s7.67,2.33,17.67-2.33S1743.63,287,1743.63,287" transform="translate(-1615.13 -236.73)"/><line class="cls-1" x1="84.12" y1="49.19" x2="96.12" y2="67.77"/><line class="cls-1" x1="60.79" y1="66.36" x2="67.54" y2="77.11"/><path class="cls-2" d="M1681,338.5c.59.62,12,12.11,28,8.5,14.85-3.35,20.52-16.81,21-18" transform="translate(-1615.13 -236.73)"/><circle class="cls-2" cx="44.25" cy="121.4" r="8.13"/><circle class="cls-2" cx="76.75" cy="140.9" r="8.13"/><circle class="cls-2" cx="114.75" cy="134.65" r="8.13"/><circle class="cls-2" cx="141.25" cy="100.9" r="8.13"/><circle class="cls-2" cx="115.75" cy="78.65" r="1.13"/><circle class="cls-2" cx="60.25" cy="33.9" r="8.13"/></svg>