<svg id="id_icon" data-name="id icon" xmlns="http://www.w3.org/2000/svg" viewBox="0 0 192.25 187.33"><defs><style>.cls-1,.cls-2{fill:none;stroke:#ba8f2e;stroke-miterlimit:10;stroke-width:6px;}.cls-2{stroke-linecap:round;}</style></defs><title>id icon 6point</title><path class="cls-1" d="M12.92,139.67H53.25a1,1,0,0,1,1,1V162.5a21.17,21.17,0,0,1-21.17,21.17h0A21.17,21.17,0,0,1,11.92,162.5V140.67a1,1,0,0,1,1-1Z"/><path class="cls-1" d="M69.92,162h31.67a1,1,0,0,1,1,1v5.21a16.12,16.12,0,0,1-16.12,16.12H85a16.13,16.13,0,0,1-16.12-16.12V163A1,1,0,0,1,69.92,162Z"/><rect class="cls-1" x="123.25" y="166.67" width="65" height="14.67" rx="1" ry="1"/><rect class="cls-1" x="136.92" y="154.33" width="50.33" height="10.67" rx="1" ry="1"/><rect class="cls-1" x="136.92" y="136.33" width="25.67" height="8.67" rx="1" ry="1"/><rect class="cls-1" x="114.58" y="117.33" width="25.67" height="8.67" rx="1" ry="1"/><rect class="cls-1" x="90.58" y="98.33" width="25.67" height="8.67" rx="1" ry="1"/><rect class="cls-1" x="67.58" y="78.33" width="25.67" height="8.67" rx="1" ry="1"/><rect class="cls-1" x="9.83" y="60.58" width="65.92" height="8.67" rx="1" ry="1"/><line class="cls-1" x1="77.58" y1="93" x2="87.92" y2="93"/><line class="cls-1" x1="100" y1="112.42" x2="112.33" y2="112.42"/><line class="cls-1" x1="124" y1="130.83" x2="134.33" y2="130.83"/><line class="cls-1" x1="145.5" y1="149.58" x2="155.83" y2="149.58"/><line class="cls-1" x1="71.62" y1="57.25" x2="162.25" y2="137.33"/><path class="cls-1" d="M13.25,3.08h57.5a0,0,0,0,1,0,0V57.33a1,1,0,0,1-1,1H13.25a1,1,0,0,1-1-1V4.08A1,1,0,0,1,13.25,3.08Z"/><line class="cls-2" x1="3" y1="3.08" x2="13.25" y2="3.08"/><line class="cls-2" x1="72.83" y1="3" x2="162.54" y2="83.58"/><line class="cls-1" x1="117.08" y1="43.17" x2="116.08" y2="97.17"/><line class="cls-2" x1="162.58" y1="83.5" x2="161.58" y2="137.5"/><line class="cls-1" x1="153.58" y1="4.33" x2="153.58" y2="19.83"/><line class="cls-1" x1="167.25" y1="3.83" x2="167.25" y2="48.17"/><line class="cls-1" x1="182.42" y1="3.67" x2="182.42" y2="23.17"/><ellipse class="cls-1" cx="153.33" cy="28.17" rx="5.75" ry="9.33"/><ellipse class="cls-1" cx="167.5" cy="54.17" rx="5.75" ry="9.33"/><ellipse class="cls-1" cx="183.5" cy="29.5" rx="5.75" ry="9.33"/><path class="cls-1" d="M1355.25,383.13s-9.25-8.62-12.5-26.37,13,2.25,18.25,20.25S1355.25,383.13,1355.25,383.13Z" transform="translate(-1332.75 -247.67)"/><path class="cls-1" d="M1378.24,381.88s9.25-8.62,12.5-26.37-13,2.25-18.25,20.25S1378.24,381.88,1378.24,381.88Z" transform="translate(-1332.75 -247.67)"/><path class="cls-1" d="M1364.34,377.64s-4-14.62.38-41.25,9.58,6.13,6.68,33.56S1364.34,377.64,1364.34,377.64Z" transform="translate(-1332.75 -247.67)"/><path class="cls-1" d="M1409.53,405.48s-7.18-3.35-9.7-10.24,10.09.87,14.17,7.86S1409.53,405.48,1409.53,405.48Z" transform="translate(-1332.75 -247.67)"/><path class="cls-1" d="M1427.39,405s7.18-3.35,9.7-10.24-10.09.87-14.17,7.86S1427.39,405,1427.39,405Z" transform="translate(-1332.75 -247.67)"/><path class="cls-1" d="M1416.59,403.35s-3.13-5.68.3-16,7.44,2.38,5.19,13S1416.59,403.35,1416.59,403.35Z" transform="translate(-1332.75 -247.67)"/><line class="cls-2" x1="12.25" y1="45.33" x2="37.25" y2="23.33"/><line class="cls-2" x1="19.25" y1="57.33" x2="56.92" y2="26.33"/><line class="cls-2" x1="77.92" y1="61.67" x2="90.92" y2="50.33"/><line class="cls-1" x1="126.25" y1="103.67" x2="154.58" y2="79.67"/><line class="cls-2" x1="145.25" y1="104.33" x2="161.92" y2="90"/><line class="cls-2" x1="45.5" y1="18.33" x2="51.25" y2="13.08"/><line class="cls-2" x1="98" y1="43.83" x2="106.75" y2="35.33"/></svg>